<svg width="1057" height="880" viewBox="0 0 1057 880" fill="none" xmlns="http://www.w3.org/2000/svg">
<g clip-path="url(#clip0_412_478)">
<path d="M-464.702 984L1548.7 984L1548.7 -148L-464.702 -148L-464.702 984Z" fill="#91C6C8"/>
<path d="M1153.03 10.109C1216.43 69.4446 1259.38 215.085 1271.14 361.176C1282.91 507.267 1263.51 653.798 1202.24 714.905C1086.18 830.662 803.037 888.363 520.846 886.958C238.655 885.554 -42.5615 825.065 -154.882 704.444C-247.719 604.692 -225.215 254.789 -133.972 154.271C-23.8012 32.9377 237.994 -59.2155 502.211 -92.9764C766.429 -126.737 1033.11 -102.116 1153.03 10.109Z" fill="#E4F1F1"/>
<path d="M1110.87 39.992C1169.7 96.9169 1207.61 233.354 1216.61 370.651C1225.53 506.502 1206.13 642.992 1148.39 702.348C1037.77 816.733 774.273 877.389 513.421 876.257C251.469 875.209 -12.4862 810.811 -121.336 690.567C-212.694 589.148 -197.206 260.742 -110.965 163.495C-7.68341 47.4862 242.021 -37.4662 493.78 -66.3636C745.54 -95.261 999.355 -68.1454 1110.87 39.992Z" fill="#91C6C8"/>
<path d="M1068.7 69.8747C1122.96 124.378 1155.85 251.613 1162.03 380.127C1168.11 505.726 1148.59 632.017 1094.48 689.781C988.994 802.467 745.508 866.352 505.997 865.545C264.284 864.79 17.3269 796.807 -87.7896 676.71C-177.9 573.782 -169.207 266.759 -87.9574 172.729C8.43439 62.024 246.058 -15.7066 485.349 -39.7406C724.64 -63.7747 965.609 -34.1645 1068.7 69.8747Z" fill="white"/>
<path d="M1026.54 99.7571C1076.22 151.861 1104.14 269.861 1107.54 389.612C1110.85 504.908 1091.24 621.169 1040.68 677.234C940.441 788.422 716.743 855.378 498.541 854.833C277.066 854.403 47.3388 782.615 -54.2752 662.843C-142.959 558.291 -141.449 272.607 -64.9504 181.974C24.2581 76.3205 250.084 6.04213 476.918 -13.1495C703.751 -32.3411 931.863 -0.194356 1026.54 99.7571Z" fill="#91C6C8"/>
<path d="M984.369 129.64C1029.37 179.437 1052.44 288.088 1053.01 399.087C1053.56 504.164 1033.84 610.341 986.833 664.688C891.91 774.408 687.969 844.341 491.148 844.131C289.923 844.016 77.4353 768.402 -20.6972 648.987C-107.987 542.767 -113.503 278.54 -41.9428 191.208C40.2817 90.827 254.122 27.8019 468.476 13.4632C682.83 -0.875461 897.908 33.9755 984.369 129.64Z" fill="#E4F1F1"/>
<path d="M942.203 159.523C982.618 206.909 1000.8 306.263 998.484 408.573C996.387 503.357 976.462 599.525 932.975 652.131C843.42 760.436 659.215 833.335 483.724 833.461C302.737 833.681 107.532 754.2 12.8807 635.172C-72.9721 527.223 -85.5559 284.535 -18.9353 200.453C56.3996 105.354 258.149 49.5194 460.045 40.0861C661.941 30.6528 864.121 67.9668 942.203 159.523Z" fill="#E4F1F1"/>
<path d="M900.037 189.416C935.869 234.381 949.229 324.512 943.954 418.048C939.183 502.55 919.122 588.729 879.127 639.574C794.983 746.485 630.451 822.33 476.289 822.717C315.552 823.252 137.659 739.914 46.3431 621.263C-37.9578 511.658 -57.557 290.552 4.07206 209.718C72.4963 119.934 262.186 71.3628 451.614 66.7195C641.042 62.0762 830.354 101.948 900.037 189.416Z" fill="#E4F1F1"/>
<path d="M857.871 219.299C889.131 261.843 897.719 342.707 889.424 427.524C882.084 501.733 861.803 577.964 825.268 627.018C746.609 732.64 601.686 811.355 468.864 812.005C328.345 812.865 167.829 725.575 79.9308 607.407C-2.91239 496.062 -29.5376 296.589 27.079 218.932C88.6451 134.472 266.171 93.0595 443.183 93.3006C620.194 93.5417 796.609 135.908 857.871 219.299Z" fill="white"/>
<path d="M815.704 249.181C842.414 289.294 846.419 360.914 834.884 436.999C825.195 500.936 804.473 567.221 771.42 614.461C698.308 718.815 572.922 800.319 461.44 801.293C341.244 802.478 198.03 711.247 113.477 593.55C32.2176 480.434 -1.4754 302.658 50.0866 228.166C104.826 149.083 270.25 114.809 434.741 119.913C599.232 125.018 762.895 169.889 815.704 249.181Z" fill="#E4F1F1"/>
<path d="M773.538 279.064C795.78 316.692 795.308 379.183 780.354 446.485C768.431 500.15 747.27 556.54 717.561 601.904C650.091 705.042 544.157 789.313 454.015 790.571C354.006 792.08 228.451 696.761 147.023 579.662C67.5464 464.681 26.6492 308.758 73.0938 237.4C121.069 163.715 274.287 136.568 426.31 146.526C578.332 156.483 729.369 203.671 773.538 279.064Z" fill="white"/>
<path d="M96.1014 246.645C137.376 178.389 278.325 158.359 417.879 173.128C557.433 187.896 695.624 237.652 731.341 308.947C762.182 370.442 725.385 487.383 663.682 589.347C601.98 691.311 515.393 778.307 446.591 779.911C366.82 781.745 258.558 682.559 180.56 565.858C102.561 449.157 54.8266 314.9 96.1014 246.645Z" fill="#E4F1F1"/>
<path d="M96.1014 246.645C137.376 178.389 278.325 158.359 417.879 173.128C557.433 187.896 695.624 237.652 731.341 308.947C762.182 370.442 725.385 487.383 663.682 589.347C601.98 691.311 515.393 778.307 446.591 779.911C366.82 781.745 258.558 682.559 180.56 565.858C102.561 449.157 54.8266 314.9 96.1014 246.645Z" fill="#91C6C8"/>
<path d="M711.416 321.021C678.824 257.084 555.168 212.381 430.138 199.216C305.107 186.051 178.861 204.299 141.508 265.637C104.155 326.975 146.478 446.967 215.5 551.96C245.555 597.638 280.747 640.507 317.125 674.163C364.88 718.322 414.313 746.842 455.651 745.92C517.826 744.515 595.74 666.784 651.256 575.48C675.616 535.651 695.592 493.106 707.956 453.015C724.241 400.607 727.597 352.77 711.416 321.021Z" fill="#91C6C8"/>
<path d="M691.492 333.086C662.13 276.433 553.071 236.813 442.438 225.294C331.806 213.775 220.397 230.21 186.956 284.63C153.515 339.049 190.427 444.902 250.494 538.093C276.93 579.117 308.033 617.752 340.625 647.96C383.169 687.349 427.464 712.767 464.775 711.96C520.353 710.733 589.291 642.1 638.85 561.603C660.809 525.966 678.856 487.74 689.678 451.547C703.908 404.517 706.299 361.7 691.492 333.086Z" fill="white"/>
<path d="M671.568 345.16C645.352 295.824 550.847 261.256 454.749 251.372C358.651 241.488 261.924 256.12 232.436 303.622C202.948 351.124 234.397 442.816 285.508 524.236C308.337 560.596 335.361 594.997 364.156 621.714C401.478 656.303 440.624 678.66 473.919 677.968C522.838 676.92 582.978 617.469 626.497 547.704C646.107 516.26 662.078 482.321 671.452 449.985C683.438 408.395 685.011 370.546 671.568 345.16Z" fill="#91C6C8"/>
<path d="M651.56 357.224C628.563 315.204 548.572 285.688 466.998 277.46C385.423 269.232 303.408 282.03 277.8 322.614C252.193 363.199 278.22 440.751 320.407 510.369C339.629 542.097 362.573 572.21 387.521 595.542C419.63 625.393 453.638 644.616 482.948 644.029C525.25 643.159 576.613 592.9 614.028 533.858C631.3 506.606 645.257 476.986 653.112 448.529C663.063 412.294 663.724 379.435 651.56 357.224Z" fill="#E4F1F1"/>
<path d="M631.614 369.299C611.847 334.574 546.359 310.121 479.235 303.538C412.111 296.956 344.872 307.94 323.186 341.607C301.5 375.273 322.043 438.728 355.327 496.502C370.931 523.597 389.796 549.497 411 569.338C437.887 594.389 466.746 610.53 491.997 610.111C527.651 609.409 570.258 568.353 601.539 520.033C616.472 496.974 628.416 471.661 634.75 447.072C642.699 416.204 642.447 388.333 631.614 369.299Z" fill="white"/>
<path d="M611.659 381.374C595.174 353.933 544.147 334.564 491.515 329.616C438.883 324.669 386.336 333.851 368.603 360.652C350.87 387.453 365.824 436.821 390.278 482.688C402.265 505.181 417.061 526.804 434.469 543.176C456.134 563.49 479.854 576.508 501.079 576.162C530.126 575.638 563.997 543.795 589.102 506.177C601.686 487.31 611.638 466.347 616.44 445.583C622.334 420.103 621.233 397.211 611.659 381.374Z" fill="#E4F1F1"/>
<path d="M591.703 393.438C578.563 373.261 541.923 358.996 503.784 355.705C465.644 352.413 427.862 359.761 414.019 379.592C400.177 399.423 409.489 434.924 425.23 468.768C433.566 486.713 444.325 503.997 457.926 516.92C474.369 532.464 492.951 542.38 510.16 542.149C532.58 541.793 557.737 519.205 576.665 492.247C586.973 477.573 594.88 460.897 598.131 444.032C602 424.023 599.945 406.089 591.703 393.438Z" fill="#91C6C8"/>
<path d="M571.747 405.512C562.068 392.526 539.711 383.428 516.053 381.782C492.396 380.137 469.367 385.671 459.426 398.553C449.485 411.435 452.83 433.268 460.171 454.88C464.753 468.36 471.58 481.22 481.385 490.675C492.605 501.45 506.049 508.263 519.23 508.147C535.023 507.98 551.613 494.699 564.217 478.348C572.261 467.867 578.133 455.52 579.821 442.512C581.709 427.953 578.773 414.935 571.747 405.512Z" fill="#E4F1F1"/>
<path d="M495.133 441.045C495.136 448.726 497.804 456.168 502.681 462.103C507.559 468.038 514.345 472.099 521.883 473.593C529.421 475.087 537.244 473.922 544.019 470.297C550.793 466.672 556.101 460.81 559.036 453.712C561.971 446.613 562.353 438.717 560.116 431.369C557.879 424.021 553.162 417.675 546.768 413.414C540.374 409.153 532.7 407.24 525.053 408.001C517.407 408.762 510.261 412.15 504.833 417.587C501.75 420.666 499.306 424.323 497.641 428.348C495.976 432.374 495.124 436.689 495.133 441.045Z" fill="white"/>
</g>
<defs>
<clipPath id="clip0_412_478">
<rect width="1057" height="880" fill="white"/>
</clipPath>
</defs>
</svg>
